<svg width="519" height="274" viewBox="0 0 519 274" fill="none" xmlns="http://www.w3.org/2000/svg">
<g clip-path="url(#clip0_458_740)">
<path d="M286.786 -9.15527e-05L355.361 2.23623L286.786 68.0428V-9.15527e-05ZM281.805 3.67392V71.4771H218.055C239.794 49.369 260.641 26.3915 281.805 3.67392ZM351.703 12.8579L360.499 15.8928L328.741 34.8198L351.703 12.8579ZM179.682 20.3651H193.615L226.073 55.9836L210.972 71.4771H179.682C179.684 54.4286 179.682 37.4047 179.682 20.3651ZM174.7 23.4798V38.2543H158.666L174.7 23.4798ZM183.184 76.5883H280.637L253.472 151.1L183.184 76.5883ZM281.805 88.0882V192.389L250.047 174.979C260.636 146.012 271.211 117.062 281.805 88.0882V88.0882Z" fill="#2D4291"/>
<path d="M49.8081 223.158L29.0215 272.867H20.4545L0 223.158H7.83647L24.7712 264.738L41.8388 223.158H49.8081V223.158ZM101.542 229.554L96.8933 235.019C95.0781 233.153 92.9087 231.687 90.385 230.621C87.8614 229.554 85.205 229.021 82.4158 229.021C78.7853 229.021 75.4758 229.843 72.4873 231.487C69.4989 233.131 67.1634 235.374 65.481 238.217C63.7543 241.193 62.891 244.503 62.891 248.146C62.891 251.611 63.8207 254.809 65.6802 257.741C67.4512 260.495 69.8309 262.683 72.8194 264.305C75.8079 265.926 79.0288 266.737 82.4822 266.737C84.9172 266.737 87.2527 266.315 89.4885 265.471C91.7243 264.627 93.7277 263.449 95.4987 261.939V252.877H89.1232L86.0019 245.68H102.671V265.004C100.147 267.847 97.1257 270.057 93.606 271.634C90.0862 273.211 86.3561 274 82.4158 274C77.5014 274 72.9854 272.801 68.868 270.402C64.839 268.092 61.6735 264.915 59.3712 260.873C56.9804 256.742 55.785 252.21 55.785 247.279C55.785 242.526 57.0468 238.15 59.5705 234.152C61.9612 230.332 65.2043 227.3 69.2996 225.057C73.395 222.813 77.7891 221.692 82.4822 221.692C86.1569 221.692 89.6545 222.402 92.9751 223.824C96.2071 225.157 99.0627 227.067 101.542 229.554V229.554ZM143.182 251.477H111.636V245.28H143.182V251.477ZM196.908 229.554L192.259 235.019C190.444 233.153 188.275 231.687 185.751 230.621C183.227 229.554 180.571 229.021 177.782 229.021C174.151 229.021 170.842 229.843 167.853 231.487C164.865 233.131 162.529 235.374 160.847 238.217C159.12 241.193 158.257 244.503 158.257 248.146C158.257 251.611 159.187 254.809 161.046 257.741C162.817 260.495 165.197 262.683 168.185 264.305C171.174 265.926 174.395 266.737 177.848 266.737C181.036 266.737 184.002 266.048 186.747 264.671C189.492 263.294 191.772 261.384 193.587 258.941L198.037 265.004C195.513 267.847 192.492 270.057 188.972 271.634C185.452 273.211 181.722 274 177.782 274C172.867 274 168.351 272.801 164.234 270.402C160.205 268.092 157.039 264.915 154.737 260.873C152.346 256.742 151.151 252.21 151.151 247.279C151.151 242.526 152.413 238.15 154.936 234.152C157.327 230.332 160.57 227.3 164.665 225.057C168.761 222.813 173.155 221.692 177.848 221.692C181.523 221.692 185.02 222.402 188.341 223.824C191.573 225.157 194.429 227.067 196.908 229.554V229.554ZM215.901 230.421V246.946C217.274 246.147 218.801 245.614 220.484 245.347C221.723 245.125 223.317 245.014 225.265 245.014H234.696C237.308 245.014 239.344 244.414 240.805 243.215C242.355 241.926 243.13 239.994 243.13 237.417C243.13 234.974 242.311 233.153 240.673 231.953C239.256 230.932 237.264 230.421 234.696 230.421H215.901V230.421ZM237.086 265.004L231.043 252.277H225.265C223.45 252.277 221.856 252.388 220.484 252.61C218.801 252.921 217.274 253.454 215.901 254.209V272.867H208.663V223.158H234.696C237.751 223.158 240.451 223.735 242.798 224.89C245.144 226.045 246.959 227.689 248.243 229.821C249.616 232.087 250.302 234.752 250.302 237.817C250.302 241.549 249.306 244.614 247.314 247.013C245.321 249.412 242.51 251.078 238.88 252.01L242.731 259.94C243.838 261.584 244.702 262.739 245.321 263.405C246.074 264.249 246.793 264.815 247.48 265.104C248.166 265.393 249.063 265.537 250.169 265.537H250.9L252.494 265.471V272.867C249.926 272.867 248.022 272.778 246.782 272.601C244.702 272.245 242.931 271.557 241.47 270.535C239.743 269.291 238.282 267.448 237.086 265.004V265.004ZM271.686 252.943V265.604H302.235V272.867H264.448V223.158H299.313V230.487H271.686V245.547C273.059 244.747 274.586 244.214 276.269 243.948C277.508 243.726 279.102 243.614 281.05 243.614H291.875V251.011H281.05C279.235 251.011 277.641 251.122 276.269 251.344C274.586 251.655 273.059 252.188 271.686 252.943V252.943ZM329.331 228.422L326.608 222.291H334.577L358.419 272.867H350.317L347.063 265.604H331.987C329.154 265.604 326.608 265.871 324.35 266.404C322.358 266.892 320.698 267.536 319.369 268.336C318.174 269.047 317.377 269.78 316.979 270.535L315.717 272.867H307.88L329.331 228.422ZM334.644 258.274H343.809L332.984 237.284L322.026 261.073C323 260.229 324.483 259.562 326.475 259.074C328.733 258.541 331.456 258.274 334.644 258.274ZM404.574 230.487H387.108V272.867H380.069V230.487H362.404V223.158H404.574V230.487ZM456.707 247.679C456.707 244.125 455.799 240.905 453.984 238.017C452.257 235.218 449.9 233.02 446.911 231.42C443.923 229.821 440.68 229.021 437.182 229.021C433.552 229.021 430.242 229.843 427.254 231.487C424.265 233.131 421.93 235.374 420.247 238.217C418.521 241.193 417.657 244.503 417.657 248.146C417.657 251.611 418.587 254.809 420.447 257.741C422.217 260.495 424.597 262.683 427.586 264.305C430.574 265.926 433.806 266.737 437.282 266.737C440.757 266.737 443.989 265.893 446.978 264.205C449.966 262.517 452.324 260.251 454.05 257.408C455.821 254.432 456.707 251.189 456.707 247.679V247.679ZM463.879 248.079C463.879 252.877 462.639 257.297 460.16 261.339C457.769 265.204 454.526 268.281 450.431 270.568C446.336 272.856 441.919 274 437.182 274C432.268 274 427.752 272.801 423.634 270.402C419.605 268.092 416.44 264.915 414.138 260.873C411.747 256.742 410.551 252.21 410.551 247.279C410.551 242.526 411.813 238.15 414.337 234.152C416.728 230.332 419.971 227.3 424.066 225.057C428.161 222.813 432.555 221.692 437.248 221.692C442.074 221.692 446.546 222.869 450.663 225.223C454.692 227.533 457.88 230.665 460.227 234.619C462.662 238.75 463.879 243.237 463.879 248.079V248.079ZM482.408 230.421V246.946C483.78 246.147 485.308 245.614 486.99 245.347C488.23 245.125 489.824 245.014 491.772 245.014H501.202C503.814 245.014 505.851 244.414 507.312 243.215C508.861 241.926 509.636 239.994 509.636 237.417C509.636 234.974 508.817 233.153 507.179 231.953C505.762 230.932 503.77 230.421 501.202 230.421H482.408V230.421ZM503.593 265.004L497.549 252.277H491.772C489.956 252.277 488.363 252.388 486.99 252.61C485.308 252.921 483.78 253.454 482.408 254.209V272.867H475.169V223.158H501.202C504.257 223.158 506.958 223.735 509.304 224.89C511.651 226.045 513.466 227.689 514.75 229.821C516.122 232.087 516.809 234.752 516.809 237.817C516.809 241.549 515.812 244.614 513.82 247.013C511.828 249.412 509.016 251.078 505.386 252.01L509.238 259.94C510.345 261.584 511.208 262.739 511.828 263.405C512.58 264.249 513.3 264.815 513.986 265.104C514.672 265.393 515.569 265.537 516.676 265.537H517.406L519 265.471V272.867C516.432 272.867 514.528 272.778 513.289 272.601C511.208 272.245 509.437 271.557 507.976 270.535C506.249 269.291 504.788 267.448 503.593 265.004Z" fill="#2D4291"/>
</g>
<defs>
<clipPath id="clip0_458_740">
<rect width="519" height="274" fill="white"/>
</clipPath>
</defs>
</svg>
