<svg width="26" height="24" viewBox="0 0 26 24" fill="none" xmlns="http://www.w3.org/2000/svg">
<path d="M1 13L13 1L25 13" stroke="white" stroke-width="1.9" stroke-linecap="round" stroke-linejoin="round"/>
<path d="M3.66663 10.3333V20.9999C3.66663 21.3535 3.8071 21.6927 4.05715 21.9427C4.3072 22.1928 4.64634 22.3333 4.99996 22.3333H8.99996C9.35358 22.3333 9.69272 22.1928 9.94277 21.9427C10.1928 21.6927 10.3333 21.3535 10.3333 20.9999V15.6666C10.3333 15.313 10.4738 14.9738 10.7238 14.7238C10.9739 14.4737 11.313 14.3333 11.6666 14.3333H14.3333C14.6869 14.3333 15.0261 14.4737 15.2761 14.7238C15.5261 14.9738 15.6666 15.313 15.6666 15.6666V20.9999C15.6666 21.3535 15.8071 21.6927 16.0571 21.9427C16.3072 22.1928 16.6463 22.3333 17 22.3333H21C21.3536 22.3333 21.6927 22.1928 21.9428 21.9427C22.1928 21.6927 22.3333 21.3535 22.3333 20.9999V10.3333" stroke="white" stroke-width="1.9" stroke-linecap="round" stroke-linejoin="round"/>
</svg>
