<svg width="28" height="28" viewBox="0 0 28 28" fill="none" xmlns="http://www.w3.org/2000/svg">
<path d="M2 14L14 2L26 14" stroke="#2D4291" stroke-width="1.9" stroke-linecap="round" stroke-linejoin="round"/>
<path d="M4.66675 11.3335V22.0002C4.66675 22.3538 4.80722 22.6929 5.05727 22.943C5.30732 23.193 5.64646 23.3335 6.00008 23.3335H10.0001C10.3537 23.3335 10.6928 23.193 10.9429 22.943C11.1929 22.6929 11.3334 22.3538 11.3334 22.0002V16.6668C11.3334 16.3132 11.4739 15.9741 11.7239 15.724C11.974 15.474 12.3131 15.3335 12.6667 15.3335H15.3334C15.687 15.3335 16.0262 15.474 16.2762 15.724C16.5263 15.9741 16.6667 16.3132 16.6667 16.6668V22.0002C16.6667 22.3538 16.8072 22.6929 17.0573 22.943C17.3073 23.193 17.6465 23.3335 18.0001 23.3335H22.0001C22.3537 23.3335 22.6928 23.193 22.9429 22.943C23.1929 22.6929 23.3334 22.3538 23.3334 22.0002V11.3335" stroke="#2D4291" stroke-width="1.9" stroke-linecap="round" stroke-linejoin="round"/>
</svg>
