<svg width="28" height="29" viewBox="0 0 28 29" fill="none" xmlns="http://www.w3.org/2000/svg">
<path fill-rule="evenodd" clip-rule="evenodd" d="M2 14.7285L14 2.72852L26 14.7285" fill="white"/>
<path fill-rule="evenodd" clip-rule="evenodd" d="M4.66663 12.0618V22.7284C4.66663 23.0821 4.8071 23.4212 5.05715 23.6712C5.3072 23.9213 5.64634 24.0618 5.99996 24.0618H9.99996C10.3536 24.0618 10.6927 23.9213 10.9428 23.6712C11.1928 23.4212 11.3333 23.0821 11.3333 22.7284V17.3951C11.3333 17.0415 11.4738 16.7023 11.7238 16.4523C11.9739 16.2022 12.313 16.0618 12.6666 16.0618H15.3333C15.6869 16.0618 16.0261 16.2022 16.2761 16.4523C16.5261 16.7023 16.6666 17.0415 16.6666 17.3951V22.7284C16.6666 23.0821 16.8071 23.4212 17.0571 23.6712C17.3072 23.9213 17.6463 24.0618 18 24.0618H22C22.3536 24.0618 22.6927 23.9213 22.9428 23.6712C23.1928 23.4212 23.3333 23.0821 23.3333 22.7284V12.0618" fill="white"/>
</svg>
