<svg width="28" height="29" viewBox="0 0 28 29" fill="none" xmlns="http://www.w3.org/2000/svg">
<path d="M18.5 17.3712C18.2613 17.3712 18.0324 17.466 17.8636 17.6348C17.6948 17.8036 17.6 18.0325 17.6 18.2712C17.6 18.5099 17.6948 18.7388 17.8636 18.9076C18.0324 19.0764 18.2613 19.1712 18.5 19.1712H21.5C21.7387 19.1712 21.9676 19.0764 22.1364 18.9076C22.3052 18.7388 22.4 18.5099 22.4 18.2712C22.4 18.0325 22.3052 17.8036 22.1364 17.6348C21.9676 17.466 21.7387 17.3712 21.5 17.3712H18.5ZM4.75 5.97119C4.02065 5.97119 3.32118 6.26092 2.80546 6.77665C2.28973 7.29237 2 7.99185 2 8.72119V20.2212C2 20.9505 2.28973 21.65 2.80546 22.1657C3.32118 22.6815 4.02065 22.9712 4.75 22.9712H23.25C23.9793 22.9712 24.6788 22.6815 25.1945 22.1657C25.7103 21.65 26 20.9505 26 20.2212V8.72119C26 7.99185 25.7103 7.29237 25.1945 6.77665C24.6788 6.26092 23.9793 5.97119 23.25 5.97119H4.75ZM3.5 20.2212V12.4712H24.5V20.2212C24.5 20.9112 23.94 21.4712 23.25 21.4712H4.75C4.06 21.4712 3.5 20.9112 3.5 20.2212ZM3.5 10.9712V8.72119C3.5 8.03119 4.06 7.47119 4.75 7.47119H23.25C23.94 7.47119 24.5 8.03119 24.5 8.72119V10.9712H3.5Z" fill="white"/>
</svg>
