<svg width="28" height="29" viewBox="0 0 28 29" fill="none" xmlns="http://www.w3.org/2000/svg">
<path d="M16.8444 0.728516C17.0616 0.728522 17.2733 0.795723 17.4488 0.920441C17.6244 1.04516 17.7548 1.22096 17.8212 1.42252L18.95 4.84052C19.424 5.06652 19.8776 5.32052 20.3106 5.60652L23.9143 4.85052C24.1267 4.80631 24.3481 4.82896 24.5466 4.91522C24.745 5.00148 24.9102 5.1469 25.0184 5.33052L27.8627 10.1285C27.9714 10.312 28.0174 10.5244 27.9941 10.7351C27.9709 10.9457 27.8796 11.1437 27.7334 11.3005L25.2605 13.9605C25.2965 14.4706 25.2965 14.9825 25.2605 15.4925L27.7334 18.1565C27.8796 18.3133 27.9709 18.5113 27.9941 18.722C28.0174 18.9326 27.9714 19.145 27.8627 19.3285L25.0184 24.1285C24.9099 24.3118 24.7445 24.4568 24.5462 24.5427C24.3478 24.6285 24.1265 24.6509 23.9143 24.6065L20.3106 23.8505C19.8796 24.1345 19.424 24.3905 18.952 24.6165L17.8212 28.0345C17.7548 28.2361 17.6244 28.4119 17.4488 28.5366C17.2733 28.6613 17.0616 28.7285 16.8444 28.7285H11.1556C10.9384 28.7285 10.7267 28.6613 10.5512 28.5366C10.3756 28.4119 10.2452 28.2361 10.1788 28.0345L9.0521 24.6185C8.57931 24.3932 8.12329 24.1359 7.68738 23.8485L4.08573 24.6065C3.87326 24.6507 3.65186 24.6281 3.45345 24.5418C3.25503 24.4555 3.08983 24.3101 2.98164 24.1265L0.137264 19.3285C0.0286493 19.145 -0.0173566 18.9326 0.00588011 18.722C0.0291168 18.5113 0.120395 18.3133 0.266554 18.1565L2.73948 15.4925C2.70366 14.9838 2.70366 14.4733 2.73948 13.9645L0.266554 11.3005C0.120395 11.1437 0.0291168 10.9457 0.00588011 10.7351C-0.0173566 10.5244 0.0286493 10.312 0.137264 10.1285L2.98164 5.32852C3.09013 5.14526 3.25546 5.00026 3.45385 4.91437C3.65224 4.82848 3.87348 4.80612 4.08573 4.85052L7.68738 5.60852C8.12245 5.32252 8.57804 5.06452 9.0521 4.83852L10.1808 1.42252C10.2471 1.2216 10.3769 1.04627 10.5516 0.921616C10.7263 0.796958 10.937 0.729367 11.1536 0.728516H16.8423H16.8444ZM16.0933 2.72852H11.9067L10.7411 6.26252L9.95508 6.63652C9.56868 6.82079 9.19567 7.03061 8.83867 7.26452L8.11218 7.74452L4.38536 6.96052L2.29209 10.4965L4.84711 13.2525L4.78554 14.1005C4.75605 14.5187 4.75605 14.9383 4.78554 15.3565L4.84711 16.2045L2.28799 18.9605L4.3833 22.4965L8.11013 21.7145L8.83662 22.1925C9.19362 22.4264 9.56663 22.6362 9.95302 22.8205L10.739 23.1945L11.9067 26.7285H16.0974L17.2671 23.1925L18.0511 22.8205C18.4371 22.6367 18.8094 22.4268 19.1654 22.1925L19.8899 21.7145L23.6187 22.4965L25.712 18.9605L23.1549 16.2045L23.2165 15.3565C23.2461 14.9377 23.2461 14.5174 23.2165 14.0985L23.1549 13.2505L25.7141 10.4965L23.6187 6.96052L19.8899 7.74052L19.1654 7.26452C18.8094 7.03014 18.4371 6.8203 18.0511 6.63652L17.2671 6.26452L16.0953 2.72852H16.0933ZM14 8.72852C15.6328 8.72852 17.1988 9.36066 18.3534 10.4859C19.508 11.6111 20.1567 13.1372 20.1567 14.7285C20.1567 16.3198 19.508 17.8459 18.3534 18.9712C17.1988 20.0964 15.6328 20.7285 14 20.7285C12.3672 20.7285 10.8012 20.0964 9.64659 18.9712C8.49199 17.8459 7.84334 16.3198 7.84334 14.7285C7.84334 13.1372 8.49199 11.6111 9.64659 10.4859C10.8012 9.36066 12.3672 8.72852 14 8.72852V8.72852ZM14 10.7285C12.9114 10.7285 11.8675 11.1499 11.0977 11.9001C10.328 12.6502 9.89556 13.6676 9.89556 14.7285C9.89556 15.7894 10.328 16.8068 11.0977 17.5569C11.8675 18.3071 12.9114 18.7285 14 18.7285C15.0886 18.7285 16.1325 18.3071 16.9023 17.5569C17.672 16.8068 18.1044 15.7894 18.1044 14.7285C18.1044 13.6676 17.672 12.6502 16.9023 11.9001C16.1325 11.1499 15.0886 10.7285 14 10.7285V10.7285Z" fill="white"/>
</svg>
