<svg xmlns:xlink="http://www.w3.org/1999/xlink" xmlns="http://www.w3.org/2000/svg" viewBox="0 0 330.00000000000006 189.4026342712567" height="189.4026342712567" width="330.00000000000006" style="width: 330px; height: 189.403px; position: absolute; top: 50%; left: 50%; transform: translate(-50%, -50%) scale(0.633333); z-index: 0; cursor: pointer;"><defs id="SvgjsDefs5896"></defs><g id="SvgjsG5897" featurekey="rZF8Vg-0" transform="matrix(1.75,0,0,1.75,77.50001168251038,-20.999893188476562)" fill="#272F51"><g xmlns="http://www.w3.org/2000/svg" transform="translate(0,-952.36218)" fill="#272F51"><path d="m 60.7828,964.36215 27.1809,0.8834 -27.1809,25.9958 z m -1.9745,1.4513 0,26.7845 -25.2681,0 c 8.6166,-8.7334 16.8796,-17.8103 25.2681,-26.7845 z m 27.7053,3.628 3.4864,1.1989 -12.5877,7.4768 z m -68.1835,2.9656 5.5226,0 12.8654,14.0705 -5.9854,6.1204 -12.4026,0 c 9e-4,-6.7347 0,-13.4597 0,-20.1909 z m -1.9746,1.2304 0,5.8364 -6.3555,0 z m 3.363,20.9796 38.627,0 -10.7675,29.43465 z m 39.0898,4.54286 0,41.20229 -12.5878,-6.8775 c 4.1972,-11.443 8.3886,-22.879 12.5878,-34.32479 z" style="text-indent:0;text-transform:none;direction:ltr;block-progression:tb;baseline-shift:baseline;color:;enable-background:accumulate;" fill="#272F51" fill-opacity="1" stroke="none" marker="none" visibility="visible" display="inline" overflow="visible"></path></g></g><g id="SvgjsG5898" featurekey="6VBqdG-0" transform="matrix(2.5279606128295855,0,0,2.5279606128295855,-1.0111832807913905,138.3378279634182)" fill="#FFFFFF"><path d="M12.42 6 l2.78 0 l-6.22 14 l-2.34 0 l-6.24 -14 l2.78 0 l4.62 10.76 z M30 12.64 c0.54 4.66 -2.52 7.56 -6.26 7.56 c-3.92 0 -7.24 -2.96 -7.24 -7.2 s3.4 -7.2 7.24 -7.2 c1.82 0 3.46 0.6 4.68 1.66 l-1.58 1.8 c-0.8 -0.6 -1.86 -1 -2.94 -1 c-2.62 0 -4.68 1.98 -4.68 4.74 s2 4.74 4.52 4.74 c2 0 3.42 -0.8 3.84 -2.86 l-3.48 0 l0 -2.24 l5.9 0 z M38.04 13.42 l0 2.14 l-6.2 0 l0 -2.14 l6.2 0 z M51.86 18.5 c-1.26 1.1 -2.9 1.7 -4.76 1.7 c-3.84 0 -7.26 -2.96 -7.26 -7.2 s3.42 -7.2 7.26 -7.2 c1.84 0 3.46 0.6 4.68 1.66 l-1.58 1.8 c-0.8 -0.6 -1.86 -1 -2.94 -1 c-2.6 0 -4.7 1.98 -4.7 4.74 s2.1 4.74 4.7 4.74 c1.1 0 2.2 -0.42 3.02 -1.08 z M64.6 20 l-2.78 0 l-3.12 -4.76 l-0.12 0 l-2.2 0 l0 4.76 l-2.62 0 l0 -14 l4.82 0 c3.14 0 5.12 1.92 5.12 4.7 c0 1.94 -0.96 3.38 -2.6 4.08 z M56.38 8.42 l0 4.56 l2.06 0 c1.58 0 2.64 -0.68 2.64 -2.28 c0 -1.58 -1.06 -2.28 -2.64 -2.28 l-2.06 0 z M69.02 17.58 l6.1 0 l0 2.42 l-6.5 0 l-2.22 0 l0 -14 l2.62 0 l5.92 0 l0 2.42 l-5.92 0 l0 3.36 l4.5 0 l0 2.36 l-4.5 0 l0 3.44 z M88.04 20 l-1.16 -2.7 l-6.92 0 l-1.16 2.7 l-2.78 0 l6.24 -14 l2.34 0 l6.22 14 l-2.78 0 z M80.88000000000001 15.16 l5.08 0 l-2.54 -5.92 z M101.82 6 l0 2.42 l-3.6 0 l0 11.58 l-2.62 0 l0 -11.58 l-3.58 0 l0 -2.42 l9.8 0 z M110.76 5.800000000000001 c3.84 0 7.24 2.96 7.24 7.2 s-3.4 7.2 -7.24 7.2 s-7.24 -2.96 -7.24 -7.2 s3.4 -7.2 7.24 -7.2 z M110.76 17.740000000000002 c2.44 0 4.5 -1.98 4.5 -4.74 s-2.06 -4.74 -4.5 -4.74 c-2.46 0 -4.52 1.98 -4.52 4.74 s2.06 4.74 4.52 4.74 z M130.94 20 l-2.78 0 l-3.12 -4.76 l-0.12 0 l-2.2 0 l0 4.76 l-2.62 0 l0 -14 l4.82 0 c3.14 0 5.12 1.92 5.12 4.7 c0 1.94 -0.96 3.38 -2.6 4.08 z M122.72 8.42 l0 4.56 l2.06 0 c1.58 0 2.64 -0.68 2.64 -2.28 c0 -1.58 -1.06 -2.28 -2.64 -2.28 l-2.06 0 z" fill="#FFFFFF"></path></g></svg>