<svg xmlns:xlink="http://www.w3.org/1999/xlink" xmlns="http://www.w3.org/2000/svg" viewBox="0 0 350.00000000000006 188.672679063884" height="188.672679063884" width="350.00000000000006" style="width: 350px; height: 188.673px; position: absolute; top: 50%; left: 50%; transform: translate(-50%, -50%) scale(0.358286); z-index: 0; cursor: pointer;"><defs id="SvgjsDefs6991"></defs><g id="SvgjsG6992" featurekey="1p4tPl-0" transform="matrix(1.7013888888888886,0,0,1.7013888888888886,89.98612246910731,-20.41656282212999)" fill="#EAA159"><g xmlns="http://www.w3.org/2000/svg" transform="translate(0,-952.36218)" fill="#EAA159"><path d="m 60.7828,964.36215 27.1809,0.8834 -27.1809,25.9958 z m -1.9745,1.4513 0,26.7845 -25.2681,0 c 8.6166,-8.7334 16.8796,-17.8103 25.2681,-26.7845 z m 27.7053,3.628 3.4864,1.1989 -12.5877,7.4768 z m -68.1835,2.9656 5.5226,0 12.8654,14.0705 -5.9854,6.1204 -12.4026,0 c 9e-4,-6.7347 0,-13.4597 0,-20.1909 z m -1.9746,1.2304 0,5.8364 -6.3555,0 z m 3.363,20.9796 38.627,0 -10.7675,29.43465 z m 39.0898,4.54286 0,41.20229 -12.5878,-6.8775 c 4.1972,-11.443 8.3886,-22.879 12.5878,-34.32479 z" style="text-indent:0;text-transform:none;direction:ltr;block-progression:tb;baseline-shift:baseline;color:;enable-background:accumulate;" fill="#EAA159" fill-opacity="1" stroke="none" marker="none" visibility="visible" display="inline" overflow="visible"></path></g></g><g id="SvgjsG6993" featurekey="dYASrj-0" transform="matrix(2.651917042962661,0,0,2.651917042962661,0.4243050576910115,134.73268600537307)" fill="#FFFFFF"><path d="M3.08 5.720000000000001 l3.18 10.04 l0.04 0 l3.22 -10.04 l3.24 0 l-4.74 14.28 l-3.54 0 l-4.64 -14.28 l3.24 0 z M20.38 5.380000000000001 c1.6267 0 3.0066 0.47336 4.14 1.42 s1.76 2.1534 1.88 3.62 l-3 0 c-0.18666 -0.8 -0.54666 -1.4 -1.08 -1.8 s-1.18 -0.6 -1.94 -0.6 c-1.2267 0 -2.18 0.44334 -2.86 1.33 s-1.02 2.0766 -1.02 3.57 c0 1.4667 0.34666 2.63 1.04 3.49 s1.64 1.29 2.84 1.29 c2.0534 0 3.1866 -1.0267 3.4 -3.08 l-3.16 0 l0 -2.34 l6 0 l0 7.72 l-2 0 l-0.32 -1.62 c-1 1.3067 -2.3066 1.96 -3.92 1.96 c-2.1066 0 -3.8034 -0.69334 -5.09 -2.08 s-1.93 -3.1666 -1.93 -5.34 c0 -2.2134 0.64 -4.0234 1.92 -5.43 s2.98 -2.11 5.1 -2.11 z M34.86 13.32 l0 2.44 l-6.02 0 l0 -2.44 l6.02 0 z M43.7 5.380000000000001 c1.6667 0 3.0666 0.47 4.2 1.41 s1.7867 2.1834 1.96 3.73 l-3.04 0 c-0.10666 -0.70666 -0.46 -1.3 -1.06 -1.78 s-1.2867 -0.72 -2.06 -0.72 c-1.2267 0 -2.18 0.44 -2.86 1.32 s-1.02 2.0734 -1.02 3.58 c0 1.4667 0.34334 2.63 1.03 3.49 s1.6367 1.29 2.85 1.29 c0.90666 0 1.64 -0.27666 2.2 -0.83 s0.90666 -1.3433 1.04 -2.37 l3.04 0 c-0.16 1.8133 -0.81 3.24 -1.95 4.28 s-2.5834 1.56 -4.33 1.56 c-2.0934 0 -3.7866 -0.69 -5.08 -2.07 s-1.94 -3.1634 -1.94 -5.35 c0 -2.2134 0.64 -4.0234 1.92 -5.43 s2.98 -2.11 5.1 -2.11 z M59.82 5.720000000000001 c1.2 0 2.1968 0.37 2.99 1.11 s1.19 1.6833 1.19 2.83 c0 1.7867 -0.75334 2.98 -2.26 3.58 l0 0.04 c0.50666 0.14666 0.90332 0.39 1.19 0.73 s0.50332 0.73666 0.64998 1.19 s0.24 1.18 0.28 2.18 c0.05334 1.3067 0.24 2.18 0.56 2.62 l-3.14 0 c-0.17334 -0.44 -0.30668 -1.2667 -0.40002 -2.48 c-0.10666 -1.28 -0.34 -2.1166 -0.7 -2.51 s-0.94666 -0.59 -1.76 -0.59 l-3.16 0 l0 5.58 l-3.14 0 l0 -14.28 l7.7 0 z M58.72 12.18 c0.66666 0 1.19 -0.15 1.57 -0.45 s0.57 -0.83 0.57 -1.59 c0 -0.72 -0.18666 -1.23 -0.56 -1.53 s-0.90668 -0.45 -1.6 -0.45 l-3.44 0 l0 4.02 l3.46 0 z M77.24000000000001 5.720000000000001 l0 2.64 l-7.54 0 l0 3.06 l6.92 0 l0 2.44 l-6.92 0 l0 3.5 l7.7 0 l0 2.64 l-10.84 0 l0 -14.28 l10.68 0 z M86.64000000000001 5.720000000000001 l5.34 14.28 l-3.26 0 l-1.08 -3.18 l-5.34 0 l-1.12 3.18 l-3.18 0 l5.42 -14.28 l3.22 0 z M84.98000000000002 9.24 l-1.86 5.24 l3.7 0 l-1.8 -5.24 l-0.04 0 z M102.32000000000002 5.720000000000001 l0 2.64 l-4.28 0 l0 11.64 l-3.14 0 l0 -11.64 l-4.28 0 l0 -2.64 l11.7 0 z M110.36000000000001 5.380000000000001 c2.1066 0 3.8034 0.7 5.09 2.1 s1.93 3.2134 1.93 5.44 c0 2.1734 -0.64666 3.9534 -1.94 5.34 s-2.9866 2.08 -5.08 2.08 c-2.1066 0 -3.8034 -0.69334 -5.09 -2.08 s-1.93 -3.1666 -1.93 -5.34 c0 -2.2134 0.64666 -4.0234 1.94 -5.43 s2.9866 -2.11 5.08 -2.11 z M106.48000000000002 12.92 c0 1.44 0.33998 2.5966 1.02 3.47 s1.6333 1.31 2.86 1.31 c1.2 0 2.1466 -0.43 2.84 -1.29 s1.04 -2.0234 1.04 -3.49 c0 -1.5333 -0.34334 -2.7334 -1.03 -3.6 s-1.6433 -1.3 -2.87 -1.3 c-1.2 0 -2.1434 0.43334 -2.83 1.3 s-1.03 2.0666 -1.03 3.6 z M127.22000000000001 5.720000000000001 c1.2 0 2.1968 0.37 2.99 1.11 s1.19 1.6833 1.19 2.83 c0 1.7867 -0.75334 2.98 -2.26 3.58 l0 0.04 c0.50666 0.14666 0.90332 0.39 1.19 0.73 s0.50332 0.73666 0.64998 1.19 s0.24 1.18 0.28 2.18 c0.05334 1.3067 0.24 2.18 0.56 2.62 l-3.14 0 c-0.17334 -0.44 -0.30668 -1.2667 -0.40002 -2.48 c-0.10666 -1.28 -0.34 -2.1166 -0.7 -2.51 s-0.94666 -0.59 -1.76 -0.59 l-3.16 0 l0 5.58 l-3.14 0 l0 -14.28 l7.7 0 z M126.12000000000002 12.18 c0.66666 0 1.19 -0.15 1.57 -0.45 s0.57 -0.83 0.57 -1.59 c0 -0.72 -0.18666 -1.23 -0.56 -1.53 s-0.90668 -0.45 -1.6 -0.45 l-3.44 0 l0 4.02 l3.46 0 z" fill="#FFFFFF"></path></g></svg>