<svg xmlns:xlink="http://www.w3.org/1999/xlink" xmlns="http://www.w3.org/2000/svg" viewBox="0 0 349.99999999999994 185.5354782857679" height="185.5354782857679" width="349.99999999999994" style="width: 350px; height: 185.535px; position: absolute; top: 50%; left: 50%; transform: translate(-50%, -50%) scale(0.358286); z-index: 0; cursor: pointer;"><defs id="SvgjsDefs7245"></defs><g id="SvgjsG7246" featurekey="1p4tPl-0" transform="matrix(1.7013888888888886,0,0,1.7013888888888886,89.98612246910731,-20.41656282212999)" fill="#EAA159"><g xmlns="http://www.w3.org/2000/svg" transform="translate(0,-952.36218)" fill="#EAA159"><path d="m 60.7828,964.36215 27.1809,0.8834 -27.1809,25.9958 z m -1.9745,1.4513 0,26.7845 -25.2681,0 c 8.6166,-8.7334 16.8796,-17.8103 25.2681,-26.7845 z m 27.7053,3.628 3.4864,1.1989 -12.5877,7.4768 z m -68.1835,2.9656 5.5226,0 12.8654,14.0705 -5.9854,6.1204 -12.4026,0 c 9e-4,-6.7347 0,-13.4597 0,-20.1909 z m -1.9746,1.2304 0,5.8364 -6.3555,0 z m 3.363,20.9796 38.627,0 -10.7675,29.43465 z m 39.0898,4.54286 0,41.20229 -12.5878,-6.8775 c 4.1972,-11.443 8.3886,-22.879 12.5878,-34.32479 z" style="text-indent:0;text-transform:none;direction:ltr;block-progression:tb;baseline-shift:baseline;color:;enable-background:accumulate;" fill="#EAA159" fill-opacity="1" stroke="none" marker="none" visibility="visible" display="inline" overflow="visible"></path></g></g><g id="SvgjsG7247" featurekey="dYASrj-0" transform="matrix(2.468613365872789,0,0,2.468613365872789,-0.1481166606971775,135.47199753080548)" fill="#FFFFFF"><path d="M4.74 20 l-4.68 -14.3 l5.8 0 l2.2 8.72 l2.22 -8.72 l4.98 0 l-4.54 14.3 l-5.98 0 z M23.48 20.28 c-5.08 0 -7.78 -3 -7.78 -7.34 l0 -0.16 c0 -4.44 3.4 -7.3 7.78 -7.3 c3.66 0 6.92 1.64 7.1 5.64 l-5.26 0 c-0.08 -0.86 -0.6 -1.46 -1.82 -1.46 c-1.36 0 -2.26 1.12 -2.26 3.22 l0 0.16 c0 1.7 0.42 3.22 2.44 3.22 c1.44 0 1.94 -0.62 2.08 -1.16 l-2 0 l0 -3.24 l7.14 0 l0 2 c0 3.4 -2.28 6.42 -7.42 6.42 z M32.18 15.84 l0 -3.3 l6.28 0 l0 3.3 l-6.28 0 z M47.63999999999999 20.28 c-5.44 0 -7.86 -2.96 -7.86 -7.34 l0 -0.16 c0 -4.48 3.28 -7.3 7.6 -7.3 c4.1 0 6.72 1.8 7.08 5.92 l-5.52 0 c-0.06 -1.08 -0.62 -1.72 -1.54 -1.72 c-1.26 0 -2 1 -2 3.08 l0 0.16 c0 2.02 0.72 3.1 2.1 3.1 c0.98 0 1.7 -0.52 1.82 -1.72 l5.32 0 c-0.16 3.9 -3.04 5.98 -7 5.98 z M56.019999999999996 20 l0 -14.3 l6.28 0 c4.26 0 6.24 1.72 6.24 4.82 l0 0.08 c0 1.88 -0.82 3 -2.1 3.7 l2.94 5.7 l-5.54 0 l-2.22 -4.54 l-0.3 0 l0 4.54 l-5.3 0 z M61.32 12.120000000000001 l0.6 0 c1.04 0 1.5 -0.42 1.5 -1.26 l0 -0.08 c0 -0.78 -0.46 -1.12 -1.46 -1.12 l-0.64 0 l0 2.46 z M70.67999999999999 20 l0 -14.3 l10.68 0 l0 4.06 l-5.38 0 l0 1.22 l4.24 0 l0 3.68 l-4.24 0 l0 1.28 l5.68 0 l0 4.06 l-10.98 0 z M82.24 20 l4.4 -14.3 l6.86 0 l4.38 14.3 l-5.68 0 l-0.48 -1.9 l-4.04 0 l-0.48 1.9 l-4.96 0 z M89.72 9.98 l-1.16 4.56 l2.28 0 z M101.7 20 l0 -10.22 l-3.46 0 l0 -4.08 l12.28 0 l0 4.08 l-3.46 0 l0 10.22 l-5.36 0 z M119.08000000000001 16.12 c1.4 0 2.3 -1.12 2.3 -3.2 l0 -0.16 c0 -2.2 -0.96 -3.14 -2.32 -3.14 c-1.34 0 -2.26 0.96 -2.26 3.14 l0 0.16 c0 2.16 0.82 3.2 2.28 3.2 z M118.94000000000001 20.28 c-4.82 0 -7.7 -2.9 -7.7 -7.34 l0 -0.16 c0 -4.52 3.5 -7.3 7.82 -7.3 c4.44 0 7.88 2.5 7.88 7.16 l0 0.16 c0 4.58 -3.14 7.48 -8 7.48 z M128.48000000000002 20 l0 -14.3 l6.28 0 c4.26 0 6.24 1.72 6.24 4.82 l0 0.08 c0 1.88 -0.82 3 -2.1 3.7 l2.94 5.7 l-5.54 0 l-2.22 -4.54 l-0.3 0 l0 4.54 l-5.3 0 z M133.78000000000003 12.120000000000001 l0.6 0 c1.04 0 1.5 -0.42 1.5 -1.26 l0 -0.08 c0 -0.78 -0.46 -1.12 -1.46 -1.12 l-0.64 0 l0 2.46 z" fill="#FFFFFF"></path></g></svg>