<svg xmlns:xlink="http://www.w3.org/1999/xlink" xmlns="http://www.w3.org/2000/svg" class="css-ze2te4 css-qd6ojx" viewBox="0 0 136.1111111111111 129.3056594000922" width="136.1111111111111"  height="129.3056594000922" ><g transform="translate(-17.01387753089269, -20.41656282212999) scale(1.7013888888888886)" stroke="#EAA159" fill="#EAA159"><g xmlns="http://www.w3.org/2000/svg" transform="translate(0,-952.36218)" stroke="#EAA159" fill="#EAA159"><path d="m 60.7828,964.36215 27.1809,0.8834 -27.1809,25.9958 z m -1.9745,1.4513 0,26.7845 -25.2681,0 c 8.6166,-8.7334 16.8796,-17.8103 25.2681,-26.7845 z m 27.7053,3.628 3.4864,1.1989 -12.5877,7.4768 z m -68.1835,2.9656 5.5226,0 12.8654,14.0705 -5.9854,6.1204 -12.4026,0 c 9e-4,-6.7347 0,-13.4597 0,-20.1909 z m -1.9746,1.2304 0,5.8364 -6.3555,0 z m 3.363,20.9796 38.627,0 -10.7675,29.43465 z m 39.0898,4.54286 0,41.20229 -12.5878,-6.8775 c 4.1972,-11.443 8.3886,-22.879 12.5878,-34.32479 z" style="text-indent:0;text-transform:none;direction:ltr;block-progression:tb;baseline-shift:baseline;color:;enable-background:accumulate;" fill="#EAA159" fill-opacity="1" stroke="none" marker="none" visibility="visible" display="inline" overflow="visible"></path></g></g></svg>