<svg xmlns:xlink="http://www.w3.org/1999/xlink" xmlns="http://www.w3.org/2000/svg" viewBox="0 0 350 188.9314962505096" height="188.9314962505096" width="350" style="width: 350px; height: 188.931px; position: absolute; top: 50%; left: 50%; transform: translate(-50%, -50%) scale(0.358286); z-index: 0; cursor: pointer;"><defs id="SvgjsDefs7250"></defs><g id="SvgjsG7251" featurekey="1p4tPl-0" transform="matrix(1.7013888888888886,0,0,1.7013888888888886,89.98612246910731,-20.41656282212999)" fill="#EAA159"><g xmlns="http://www.w3.org/2000/svg" transform="translate(0,-952.36218)" fill="#EAA159"><path d="m 60.7828,964.36215 27.1809,0.8834 -27.1809,25.9958 z m -1.9745,1.4513 0,26.7845 -25.2681,0 c 8.6166,-8.7334 16.8796,-17.8103 25.2681,-26.7845 z m 27.7053,3.628 3.4864,1.1989 -12.5877,7.4768 z m -68.1835,2.9656 5.5226,0 12.8654,14.0705 -5.9854,6.1204 -12.4026,0 c 9e-4,-6.7347 0,-13.4597 0,-20.1909 z m -1.9746,1.2304 0,5.8364 -6.3555,0 z m 3.363,20.9796 38.627,0 -10.7675,29.43465 z m 39.0898,4.54286 0,41.20229 -12.5878,-6.8775 c 4.1972,-11.443 8.3886,-22.879 12.5878,-34.32479 z" style="text-indent:0;text-transform:none;direction:ltr;block-progression:tb;baseline-shift:baseline;color:;enable-background:accumulate;" fill="#EAA159" fill-opacity="1" stroke="none" marker="none" visibility="visible" display="inline" overflow="visible"></path></g></g><g id="SvgjsG7252" featurekey="dYASrj-0" transform="matrix(2.7852264341273294,0,0,2.7852264341273294,-2.7854243209465417,133.226654136491)" fill="#FFFFFF"><path d="M9.7044 14.9738 c0.17242 0.072656 0.25288 0.27152 0.18004 0.44412 l-1.5857 3.7494 c-0.002871 0.0067774 -0.005918 0.013379 -0.0092968 0.01998 l-0.0043946 0.012539 c-0.013555 0.035566 -0.033378 0.086386 -0.065566 0.13873 c-0.024394 0.056738 -0.063008 0.10451 -0.11195 0.13975 c-0.0084766 0.0088086 -0.01627 0.016777 -0.023378 0.023886 l-0.00017578 0.00017578 c-0.02252 0.04166 -0.04336 0.07164 -0.085528 0.11381 c-0.031328 0.031328 -0.061816 0.055546 -0.09332 0.079082 c-0.0069532 0.005254 -0.014238 0.0098242 -0.021192 0.016426 c-0.023712 0.02252 -0.056562 0.047246 -0.08586 0.061972 l-0.040644 0.023712 c-0.041152 0.030664 -0.10264 0.07623 -0.18293 0.10537 c-0.044376 0.023028 -0.093672 0.037598 -0.14246 0.040136 c-0.0060938 0.0020312 -0.012363 0.0043946 -0.018965 0.0067578 l-0.040136 0.014063 c-0.03455 0.01168 -0.0708 0.017441 -0.10723 0.017441 l-0.00068359 0 c-0.094844 0.018965 -0.17004 0.018965 -0.22696 0.018965 c-0.060294 0 -0.14531 0 -0.23322 -0.018965 c-0.050976 -0.00083984 -0.10078 -0.013203 -0.14635 -0.036074 c0.0027148 0.0020312 -0.0074414 -0.00083984 -0.014902 -0.0021876 c-0.056738 -0.0023632 -0.10992 -0.018789 -0.156 -0.045898 c-0.0064454 -0.0027148 -0.012715 -0.005586 -0.018809 -0.0088086 c-0.047422 -0.023712 -0.096212 -0.05793 -0.15244 -0.097402 l-0.0016992 -0.0011914 c-0.045898 -0.016777 -0.088066 -0.04338 -0.12313 -0.078614 c-0.0089844 -0.0072852 -0.020332 -0.013379 -0.033028 -0.021504 l-0.047598 -0.030664 c-0.05709 -0.037774 -0.10045 -0.09164 -0.12586 -0.15313 c-0.0010156 -0.002207 -0.002207 -0.0042382 -0.0032226 -0.0062696 c-0.015586 -0.017285 -0.031504 -0.036094 -0.046738 -0.05625 c-0.03709 -0.036074 -0.066386 -0.080274 -0.08502 -0.12939 c-0.0094922 -0.018301 -0.021172 -0.039804 -0.028456 -0.04963 c-0.031504 -0.031172 -0.046074 -0.05709 -0.06336 -0.09791 l-4.6476 -11.079 c-0.14465 -0.32554 -0.14803 -0.71106 -0.00625 -1.0515 c0.14295 -0.34334 0.41226 -0.60588 0.7588 -0.74002 c0.32454 -0.14143 0.6865 -0.14736 1.02 -0.016426 c0.34672 0.13602 0.6189 0.4011 0.76696 0.74646 l0.7795 1.8506 c0.072656 0.17227 -0.0081446 0.37096 -0.18057 0.44362 c-0.17277 0.073164 -0.37112 -0.0079688 -0.44362 -0.18057 l-0.77864 -1.8486 c-0.07537 -0.17564 -0.2146 -0.31166 -0.3911 -0.38076 c-0.16666 -0.06537 -0.34636 -0.062324 -0.5061 0.0088086 c-0.0059376 0.002539 -0.011699 0.004746 -0.017461 0.0071094 c-0.1748 0.066406 -0.31064 0.19785 -0.38264 0.37062 c-0.070468 0.16922 -0.069454 0.35944 0.002871 0.5222 l4.6312 11.039 c0.030664 0.041152 0.05709 0.086212 0.081132 0.1316 c0.013047 0.015762 0.024726 0.032872 0.035058 0.050996 c0.011172 0.013203 0.025234 0.026074 0.038614 0.039454 c0.02168 0.021504 0.03998 0.045722 0.054882 0.071816 c0.0050782 0.003379 0.010332 0.0071094 0.01541 0.01084 c0.017285 0.0076172 0.033886 0.016758 0.049648 0.027266 c0.02084 0.013887 0.043712 0.029804 0.066738 0.045898 c0.012363 0.0086328 0.024726 0.017441 0.03625 0.02541 c0.018965 0.0057618 0.037422 0.012871 0.055038 0.021504 c0.02711 0.0060938 0.054218 0.013555 0.080136 0.022032 c0.026934 0.0023632 0.053868 0.007793 0.079454 0.016426 c0.010156 0.0015234 0.057246 0.0015234 0.082304 0.0015234 c0.049962 0 0.073496 -0.00033204 0.10736 -0.0089648 c0.019824 -0.0050782 0.040156 -0.008125 0.060488 -0.0094726 c0.02625 -0.0088086 0.057422 -0.018965 0.09418 -0.026426 c0.013047 -0.0057618 0.026758 -0.011016 0.04166 -0.01541 c0.0040626 -0.0032226 0.0083008 -0.0062696 0.012188 -0.0093164 c0.03625 -0.026934 0.070626 -0.049454 0.098574 -0.063848 c0.015234 -0.012695 0.030488 -0.02455 0.045898 -0.036074 c0.0018555 -0.0011914 0.0035546 -0.002539 0.0054102 -0.0038868 c0.032344 -0.057422 0.072988 -0.098066 0.10076 -0.12584 l0.0049024 -0.0050782 c0.011172 -0.016426 0.023536 -0.032012 0.037246 -0.04623 c0.0020312 -0.005254 0.0037304 -0.010508 0.005586 -0.01543 c0.0084766 -0.021856 0.016777 -0.042344 0.024746 -0.05963 l1.5832 -3.7432 c0.072832 -0.17227 0.27134 -0.2529 0.44394 -0.18006 z M12.971 7.023 c0.14549 0.33994 0.15107 0.7266 0.014727 1.0608 l-2.1742 5.1406 c-0.072832 0.17242 -0.27118 0.25272 -0.44394 0.18006 c-0.17227 -0.072832 -0.25306 -0.27152 -0.18006 -0.44394 l2.1722 -5.1364 c0.066738 -0.16361 0.063008 -0.35992 -0.01168 -0.53438 c-0.073164 -0.1709 -0.20426 -0.30046 -0.36924 -0.36534 c-0.17648 -0.07791 -0.36162 -0.080274 -0.5354 -0.011836 c-0.18006 0.070468 -0.32046 0.20562 -0.39534 0.38026 l-3.6984 8.7814 c-0.052852 0.12568 -0.17582 0.20732 -0.31216 0.20732 s-0.25932 -0.081816 -0.31216 -0.20732 l-2.0724 -4.9206 c-0.072656 -0.17227 0.0081446 -0.37096 0.18057 -0.44362 c0.1726 -0.073164 0.37112 0.0079688 0.44362 0.18057 l1.7604 4.1794 l3.387 -8.0422 c0.1477 -0.34452 0.4214 -0.60876 0.77134 -0.74612 c0.34418 -0.13482 0.71512 -0.12822 1.0444 0.017773 c0.3213 0.12602 0.58554 0.38482 0.73052 0.72342 z M26.08 11.6962 c0.80694 0 1.4389 0.61546 1.4389 1.4012 l0 4.1925 c0 0.12855 -0.023712 0.22136 -0.042676 0.2959 c-0.0067774 0.025918 -0.01373 0.052168 -0.018809 0.082324 c-0.005586 0.033028 -0.015918 0.065038 -0.03082 0.095196 c-0.002539 0.008125 -0.005254 0.015918 -0.0079688 0.023886 c-0.002871 0.015586 -0.0067578 0.030996 -0.011836 0.04625 c-0.081308 0.2434 -0.24274 0.45224 -0.4802 0.62046 c-1.3032 1.0115 -2.8618 1.5461 -4.5078 1.5461 c-4.0466 0 -7.3388 -3.2072 -7.3388 -7.1494 c0 -1.8178 0.6897 -3.5498 1.9424 -4.8774 c0.1284 -0.13566 0.34284 -0.14211 0.47884 -0.013887 c0.13602 0.12855 0.14229 0.34282 0.013887 0.47898 c-1.1333 1.2013 -1.7577 2.7684 -1.7577 4.4124 c0 3.5686 2.9882 6.4718 6.6614 6.4718 c1.4966 0 2.9138 -0.48698 4.0984 -1.4084 c0.0043946 -0.0035546 0.0091406 -0.0067774 0.013711 -0.010156 c0.10977 -0.076894 0.18057 -0.15701 0.2202 -0.25 c0.0054296 -0.03455 0.016094 -0.068086 0.032012 -0.099414 c0.0043946 -0.014063 0.0089648 -0.027618 0.014395 -0.042012 c0.0067774 -0.033204 0.01457 -0.064024 0.022364 -0.094688 c0.01457 -0.057246 0.02168 -0.086718 0.02168 -0.12805 l0 -4.1925 c0 -0.41244 -0.32724 -0.7236 -0.76136 -0.7236 l-2.2338 0 c-0.18699 0 -0.33876 -0.15176 -0.33876 -0.33876 s0.15176 -0.33876 0.33876 -0.33876 l2.2338 0 z M19.2124 7.141 c-0.16498 0.088242 -0.37022 0.026074 -0.45846 -0.13873 c-0.088418 -0.16498 -0.026426 -0.37028 0.13855 -0.45852 c1.0744 -0.57554 2.2938 -0.87992 3.5264 -0.87992 c1.6577 0 3.2684 0.5515 4.5352 1.5527 c0.29386 0.21444 0.4917 0.54454 0.54674 0.92194 c0.055898 0.38314 -0.045722 0.77866 -0.27862 1.0854 c-0.23442 0.29608 -0.58384 0.48764 -0.96276 0.53066 c-0.38264 0.044376 -0.7585 -0.062852 -1.0551 -0.30032 c-0.79676 -0.61112 -1.788 -0.95004 -2.7858 -0.95004 c-1.2363 0 -2.363 0.45562 -3.1726 1.2829 c-0.8579 0.82184 -1.3261 1.9072 -1.3261 3.064 c0 1.1323 0.46816 2.2044 1.3183 3.0184 c0.81726 0.83504 1.944 1.2907 3.1804 1.2907 c0.76102 0 1.5385 -0.20088 2.2602 -0.58214 l0 -2.0602 l-2.374 0 c-0.76982 0 -1.4201 -0.65026 -1.4201 -1.4201 c0 -0.78558 0.62382 -1.4011 1.4201 -1.4011 c0.18699 0 0.33876 0.15176 0.33876 0.33876 s-0.15176 0.33876 -0.33876 0.33876 c-0.41632 0 -0.74256 0.31776 -0.74256 0.7236 c0 0.40244 0.34012 0.74256 0.74256 0.74256 l2.7128 0 c0.18699 0 0.33876 0.15176 0.33876 0.33876 l0 2.5991 c0 0.12111 -0.064706 0.23324 -0.16988 0.29354 c-0.8713 0.5012 -1.8285 0.76594 -2.7678 0.76594 c-1.4203 0 -2.7188 -0.52796 -3.657 -1.4866 c-0.977 -0.93516 -1.5194 -2.181 -1.5194 -3.5 c0 -1.3434 0.54236 -2.6026 1.5271 -3.5454 c0.93006 -0.9509 2.2288 -1.4788 3.649 -1.4788 c1.1462 0 2.284 0.38872 3.2036 1.0944 c0.16023 0.12805 0.35704 0.18377 0.56098 0.16039 c0.20106 -0.022696 0.38466 -0.12213 0.5039 -0.27254 c0.11941 -0.15752 0.17328 -0.36806 0.14348 -0.57234 c-0.028632 -0.19598 -0.13025 -0.36654 -0.28626 -0.48052 c-1.158 -0.91516 -2.6194 -1.4146 -4.1254 -1.4146 c-1.1213 0 -2.23 0.2766 -3.2066 0.79964 z M32.4538 14.5104 c0.18717 0 0.33876 0.15182 0.33876 0.3388 s-0.15176 0.33876 -0.33876 0.33876 l-1.4758 0 c-0.79034 0 -1.458 -0.66752 -1.458 -1.4579 c0 -0.81454 0.65398 -1.4772 1.458 -1.4772 c0.18699 0 0.33876 0.15176 0.33876 0.33876 s-0.15176 0.33876 -0.33876 0.33876 c-0.4231 0 -0.78048 0.3662 -0.78048 0.79962 c0 0.42296 0.35738 0.78034 0.78048 0.78034 l1.4758 0 z M34.544399999999996 12.2528 c0.80404 0 1.458 0.66256 1.458 1.4771 c0 0.79034 -0.6677 1.4579 -1.458 1.4579 l-0.60705 0 c-0.18699 0 -0.33876 -0.15176 -0.33876 -0.33876 s0.15176 -0.33876 0.33876 -0.33876 l0.60705 0 c0.4231 0 0.78048 -0.35738 0.78048 -0.78034 c0 -0.43344 -0.35738 -0.79962 -0.78048 -0.79962 l-2.413 0 c-0.18699 0 -0.33876 -0.15176 -0.33876 -0.33876 s0.15176 -0.33876 0.33876 -0.33876 l2.413 0 z M38.6775 12.833400000000001 c0.0084766 1.6747 0.66984 3.2688 1.8621 4.4852 c0.13109 0.13363 0.12889 0.34824 -0.004746 0.47918 c-0.065898 0.064532 -0.1516 0.096718 -0.23712 0.096718 c-0.087734 0 -0.17547 -0.034044 -0.24188 -0.10162 c-1.3163 -1.343 -2.0464 -3.1044 -2.0558 -4.9594 c0.007461 -1.4733 0.47004 -2.888 1.3376 -4.095 c0.67176 -0.9348 1.5702 -1.7109 2.5976 -2.2444 c1.0349 -0.53744 2.198 -0.82454 3.3638 -0.8303 c1.6999 0 3.2872 0.53642 4.5918 1.5508 c0.59436 0.4951 0.7031 1.363 0.25662 1.9831 c-0.003379 0.0045704 -0.0069336 0.0091406 -0.010488 0.013535 c-0.4856 0.6074 -1.3977 0.72816 -1.9909 0.26388 c-0.7788 -0.63688 -1.7607 -0.97124 -2.8454 -0.97124 c-0.22918 0 -0.46022 0.017793 -0.68684 0.052676 c-0.18631 0.02795 -0.3579 -0.098418 -0.38634 -0.2832 c-0.028456 -0.18496 0.098418 -0.3579 0.2832 -0.38634 c0.26084 -0.040136 0.5266 -0.060468 0.79016 -0.060468 c1.2429 0 2.3732 0.3872 3.2688 1.1198 c0.29404 0.2302 0.7771 0.16092 1.0332 -0.15143 c0.23376 -0.33232 0.17447 -0.79304 -0.13668 -1.0525 c-1.1758 -0.91414 -2.6194 -1.4011 -4.1654 -1.4011 c-1.0571 0.005254 -2.1136 0.2661 -3.0534 0.75424 c-0.9338 0.48476 -1.7497 1.1895 -2.3598 2.0384 c-0.7849 1.0922 -1.2034 2.3716 -1.2102 3.6998 z M50.147999999999996 16.4656 c0.45004 0.62518 0.336 1.5139 -0.25394 1.9814 c-1.3069 1.0164 -2.8942 1.5529 -4.5924 1.5529 c-1.2155 0 -2.423 -0.30608 -3.4916 -0.88502 c-0.16463 -0.089102 -0.2256 -0.29472 -0.1365 -0.45936 c0.089102 -0.16447 0.29472 -0.22562 0.4592 -0.13652 c0.96986 0.5254 2.0656 0.80318 3.1688 0.80318 c1.5461 0 2.9896 -0.48698 4.1742 -1.4084 c0.30522 -0.24136 0.36314 -0.7075 0.12975 -1.0424 c-0.25848 -0.30032 -0.74528 -0.36806 -1.0483 -0.14398 c-0.91668 0.7336 -2.0156 1.1096 -3.2556 1.1096 c-1.3474 0 -2.6424 -0.51762 -3.6462 -1.4573 c-0.95022 -0.92888 -1.4921 -2.2202 -1.4921 -3.5482 c0 -1.3237 0.5122 -2.547 1.4814 -3.5378 c0.40498 -0.37942 0.85096 -0.68716 1.3359 -0.9248 c0.16785 -0.082148 0.37094 -0.012871 0.45326 0.15516 c0.082324 0.16785 0.012871 0.37094 -0.15516 0.45326 c-0.4248 0.20816 -0.81524 0.47766 -1.1606 0.80066 c-0.832 0.85114 -1.2775 1.9108 -1.2775 3.0536 c0 1.1467 0.46766 2.2616 1.2829 3.0588 c0.87264 0.81658 2.003 1.2692 3.178 1.2692 c1.0823 0 2.0386 -0.32606 2.8426 -0.96902 c0.60028 -0.44428 1.507 -0.323 1.9895 0.25626 c0.0050782 0.0060938 0.01 0.012363 0.01457 0.018809 z M58.239200000000004 14.394400000000001 c0.32538 0.98088 1.2162 3.622 1.4264 4.0572 c0.081308 0.16854 0.010684 0.37112 -0.15768 0.45242 c-0.16836 0.081464 -0.37112 0.010664 -0.45242 -0.1577 c-0.23458 -0.48578 -1.1128 -3.1002 -1.382 -3.9064 l-2.4702 0 l0 3.7779 c0 0.7622 -0.6284 1.3821 -1.4009 1.3821 c-0.7622 0 -1.3821 -0.61992 -1.3821 -1.3821 l0 -2.655 c0 -0.18699 0.15176 -0.33876 0.33876 -0.33876 s0.33876 0.15176 0.33876 0.33876 l0 2.655 c0 0.38856 0.31606 0.7046 0.7046 0.7046 c0.39888 0 0.72342 -0.31606 0.72342 -0.7046 l0 -4.1166 c0 -0.18699 0.15176 -0.33876 0.33876 -0.33876 l3.0532 0 c0.146 0 0.27556 0.093496 0.32146 0.23204 z M54.8646 10.7976 c0.18699 0 0.33872 0.15154 0.33872 0.33872 l0 0.92041 l1.9946 0 c0.8906 0 1.6152 -0.71614 1.6152 -1.5962 c0 -0.91634 -0.70936 -1.6342 -1.6152 -1.6342 l-1.9946 0 l0 0.71801 c0 0.18699 -0.15176 0.33876 -0.33876 0.33876 s-0.33876 -0.15176 -0.33876 -0.33876 l0 -1.0568 c0 -0.18699 0.15176 -0.33876 0.33876 -0.33876 l2.3334 0 c1.2643 0 2.2928 1.0371 2.2928 2.3116 c0 1.2539 -1.0285 2.2738 -2.2928 2.2738 l-2.3334 0 c-0.18699 0 -0.33876 -0.15176 -0.33876 -0.33876 l0 -1.2592 c0 -0.18699 0.15176 -0.33876 0.33876 -0.33876 z M62.127 17.9736 c0.12213 0.35452 0.096562 0.73174 -0.07164 1.0649 c-0.16564 0.3279 -0.45038 0.5752 -0.8015 0.69614 c-0.036426 0.012539 -0.073692 0.018633 -0.11027 0.018633 c-0.14059 0 -0.27204 -0.088242 -0.32032 -0.22866 c-0.061152 -0.17684 0.032852 -0.36976 0.20986 -0.43056 c0.18344 -0.06334 0.33164 -0.19156 0.41734 -0.36128 c0.084864 -0.16803 0.09791 -0.35842 0.036758 -0.53594 c-0.10314 -0.29184 -0.98306 -2.349 -2.0146 -4.4778 c-0.067754 -0.14008 -0.031504 -0.30828 0.088086 -0.40788 c0.8757 -0.72968 1.3579 -1.7421 1.3579 -2.851 c0 -2.0622 -1.6692 -3.74 -3.721 -3.74 l-3.3957 0 c-0.40178 0 -0.70462 0.30286 -0.70462 0.70462 l0 7.0382 c0 0.18699 -0.15176 0.33876 -0.33876 0.33876 s-0.33876 -0.15176 -0.33876 -0.33876 l0 -7.0381 c0 -0.77508 0.60704 -1.3821 1.3821 -1.3821 l3.3957 0 c2.4254 0 4.3984 1.9816 4.3984 4.4174 c0 1.2261 -0.4956 2.3512 -1.4018 3.1954 c0.95954 1.9962 1.8063 3.9602 1.9326 4.3178 z M68.3304 19.32248 c0.18717 0 0.33894 0.15156 0.33894 0.33856 s-0.15176 0.33876 -0.33876 0.33876 l-2.6914 0 c-0.010332 0 -0.020488 -0.00033204 -0.030488 -0.0010156 c-0.0088086 0.0006836 -0.017617 0.0010156 -0.026426 0.0010156 c-0.76204 0 -1.3821 -0.61992 -1.3821 -1.3821 l0 -7.4639 c0 -0.18699 0.15176 -0.33876 0.33876 -0.33876 s0.33876 0.15176 0.33876 0.33876 l0 7.4641 c0 0.3618 0.27388 0.66076 0.62518 0.70024 c0.067578 -0.020488 0.14125 -0.019805 0.2102 0.004414 l2.6174 0 z M64.539 10.057 c-0.18717 0 -0.33876 -0.1516 -0.33876 -0.33878 l0 -2.2932 c0 -0.77508 0.60704 -1.3821 1.3821 -1.3821 l6.2034 0 c0.76204 0 1.3821 0.61992 1.3821 1.3821 c0 0.75934 -0.63296 1.4009 -1.3821 1.4009 l-1.7092 0 c-0.18699 0 -0.33876 -0.15176 -0.33876 -0.33876 s0.15176 -0.33876 0.33876 -0.33876 l1.7092 0 c0.37536 0 0.70462 -0.33808 0.70462 -0.72342 c0 -0.38196 -0.32268 -0.70462 -0.70462 -0.70462 l-6.2034 0 c-0.4016 0 -0.70462 0.30286 -0.70462 0.70462 l0 2.2932 c0 0.18699 -0.15176 0.33876 -0.33876 0.33876 z M71.7856 17.2166 c0.74934 0 1.3823 0.6416 1.3821 1.4009 c0 0.74916 -0.63296 1.3821 -1.3821 1.3821 l-1.9226 0 c-0.18699 0 -0.33876 -0.15176 -0.33876 -0.33876 s0.15176 -0.33876 0.33876 -0.33876 l1.9226 0 c0.37536 0 0.70462 -0.32928 0.70462 -0.70462 c0 -0.3855 -0.32928 -0.7236 -0.70462 -0.7236 l-5.141 0 c-0.18699 0 -0.33876 -0.15176 -0.33876 -0.33876 l0 -3.4906 c0 -0.18699 0.15176 -0.33876 0.33876 -0.33876 l4.4201 0 c0.38856 0 0.7046 -0.32454 0.7046 -0.72342 c0 -0.37536 -0.32928 -0.70462 -0.70462 -0.70462 l-4.4201 0 c-0.18699 0 -0.33876 -0.15176 -0.33876 -0.33876 l0 -3.4716 c0 -0.18699 0.15176 -0.33876 0.33876 -0.33876 l1.7053 0 c0.18699 0 0.33876 0.15176 0.33876 0.33876 s-0.15176 0.33876 -0.33876 0.33876 l-1.3666 0 l0 2.7943 l4.0814 0 c0.74916 0 1.3821 0.63296 1.3821 1.3821 c0 0.77236 -0.61992 1.4009 -1.3821 1.4009 l-4.0814 0 l0 2.8131 l4.8023 0 z M86.274 18.1194 c0.25594 0.74222 -0.10688 1.5299 -0.823 1.8014 c-0.17125 0.068262 -0.37484 0.078926 -0.4807 0.078926 c-0.57606 0 -1.0928 -0.35636 -1.2858 -0.88688 l-0.84554 -2.2432 l-4.1412 0 l-0.8469 2.247 c-0.2207 0.54016 -0.73104 0.88332 -1.3034 0.88332 c-0.16684 0 -0.3154 -0.023536 -0.4675 -0.07418 c-0.72936 -0.27642 -1.0923 -1.064 -0.8393 -1.7976 l4.1954 -11.182 c0.22274 -0.54472 0.76644 -0.89906 1.3229 -0.88398 c0.56894 -0.021856 1.0966 0.33146 1.3188 0.87466 l1.277 3.4026 c0.065722 0.17514 -0.023028 0.37026 -0.19816 0.43598 c-0.17531 0.065722 -0.37042 -0.023028 -0.43616 -0.19816 l-1.2732 -3.3934 c-0.11434 -0.27896 -0.37924 -0.45968 -0.67362 -0.44446 c-0.01 0.00050782 -0.02 0.00017578 -0.030156 0 c-0.27812 -0.013047 -0.5637 0.17801 -0.6765 0.45392 l-4.189 11.164 c-0.12975 0.3767 0.057422 0.78932 0.42904 0.93024 c0.068946 0.022696 0.14721 0.034882 0.2402 0.034882 c0.29608 0 0.56014 -0.17803 0.67296 -0.45362 l0.92618 -2.4574 c0.049804 -0.13195 0.176 -0.21936 0.31708 -0.21936 l4.6098 0 c0.14109 0 0.26744 0.087402 0.31708 0.21936 l0.92954 2.4664 c0.097226 0.26744 0.35806 0.4446 0.6504 0.4446 c0.11281 0 0.19717 -0.017617 0.23494 -0.032696 c0.3772 -0.1433 0.56438 -0.55574 0.4314 -0.94092 l-2.4026 -6.403 c-0.065722 -0.17514 0.023028 -0.37026 0.19816 -0.43598 c0.17531 -0.065898 0.37042 0.023028 0.43616 0.19816 z M79.73599999999999 13.0796 c0.17514 0.065898 0.26354 0.26136 0.19766 0.4365 l-0.22222 0.58944 l2.0942 0 l-1.0471 -2.779 l-0.32946 0.87452 c-0.066054 0.17496 -0.26134 0.26304 -0.43648 0.19768 c-0.17514 -0.065898 -0.26374 -0.26152 -0.19768 -0.43648 l0.64634 -1.716 c0.049804 -0.13195 0.176 -0.21936 0.31708 -0.21936 s0.26744 0.087402 0.31708 0.21936 l1.5366 4.0786 c0.039122 0.104 0.024902 0.2207 -0.038438 0.31216 s-0.16734 0.146 -0.27864 0.146 l-3.0732 0 c-0.11129 0 -0.21546 -0.054532 -0.27864 -0.146 s-0.077578 -0.20816 -0.038456 -0.31216 l0.39482 -1.0478 c0.065898 -0.17531 0.26136 -0.26374 0.4365 -0.1975 z M97.843 6.042999999999999 c0.7622 0 1.3821 0.61988 1.3821 1.3823 c0 0.75934 -0.63296 1.4009 -1.3821 1.4009 l-2.6777 0 l0 2.196 c0 0.18699 -0.15176 0.33876 -0.33876 0.33876 s-0.33876 -0.15176 -0.33876 -0.33876 l0 -2.5349 c0 -0.18699 0.15176 -0.33876 0.33876 -0.33876 l3.0165 0 c0.37536 0 0.70462 -0.33808 0.70462 -0.72342 c0 -0.38856 -0.31606 -0.7046 -0.7046 -0.7046 l-6.292 0 c-0.18699 0 -0.33876 -0.15176 -0.33876 -0.33876 s0.15176 -0.33876 0.33876 -0.33876 l6.292 0 z M94.826 12.4952 c0.18717 0 0.3388 0.15162 0.3388 0.33878 l0 5.7837 c0 0.77508 -0.60704 1.3821 -1.382 1.3821 c-0.7622 0 -1.3821 -0.61992 -1.3821 -1.3821 l0 -9.7915 l-2.6586 0 c-0.7622 0 -1.3821 -0.6284 -1.3821 -1.4009 c0 -0.77508 0.60704 -1.3821 1.3821 -1.3821 c0.18699 0 0.33876 0.15176 0.33876 0.33876 s-0.15176 0.33876 -0.33876 0.33876 c-0.40178 0 -0.70462 0.30286 -0.70462 0.70462 c0 0.39888 0.31606 0.72342 0.7046 0.72342 l2.9973 0 c0.18699 0 0.33876 0.15176 0.33876 0.33876 l0 10.13 c0 0.38856 0.31606 0.7046 0.7046 0.7046 c0.4016 0 0.70446 -0.30286 0.70446 -0.70462 l0 -5.7837 c0 -0.18699 0.15176 -0.33876 0.33876 -0.33876 z M112.871 7.805999999999999 c1.2892 1.3723 2.0022 3.1592 2.0022 5.0256 c0 1.0581 -0.22052 2.0784 -0.65548 3.032 c-0.077402 0.17006 -0.27796 0.24526 -0.4487 0.1675 c-0.17023 -0.077578 -0.24528 -0.27846 -0.16752 -0.4487 c0.39432 -0.86468 0.59436 -1.7904 0.59436 -2.7508 c0 -1.6933 -0.64788 -3.3152 -1.8242 -4.5676 c-1.0788 -1.2067 -2.6792 -1.9231 -4.287 -1.9231 c-1.6674 0 -3.2708 0.70022 -4.399 1.9209 c-1.1538 1.2283 -1.7881 2.8506 -1.7881 4.5698 c0 1.7377 0.63366 3.3592 1.7844 4.5658 c1.1489 1.2239 2.753 1.9248 4.4026 1.9248 c1.591 0 3.1922 -0.71732 4.283 -1.9189 c0.04539 -0.047598 0.084356 -0.08961 0.12297 -0.13213 c0.12533 -0.13906 0.33976 -0.14957 0.47832 -0.024238 c0.13889 0.12533 0.14973 0.3396 0.024218 0.47832 c-0.04252 0.04709 -0.085878 0.093672 -0.12975 0.13957 c-1.2112 1.3344 -2.9998 2.1348 -4.7788 2.1348 c-1.8361 0 -3.6204 -0.7788 -4.8948 -2.1368 c-1.2697 -1.3312 -1.9699 -3.1188 -1.9699 -5.0314 c0 -1.8921 0.69954 -3.679 1.9699 -5.0314 c1.2543 -1.3571 3.039 -2.1368 4.8948 -2.1368 c1.7976 0 3.5868 0.801 4.7864 2.1428 z M104.1092 10.8688 c0.17666 0.06166 0.27016 0.25454 0.20868 0.4307 c-0.1709 0.49104 -0.25762 1.0063 -0.25762 1.5315 c0 1.1708 0.43496 2.2876 1.1934 3.0642 c0.77374 0.82876 1.7509 1.2637 2.831 1.2637 c1.0156 0 1.9921 -0.44682 2.7496 -1.2583 c0.7629 -0.79998 1.1989 -1.9177 1.1989 -3.0696 c0 -1.1452 -0.437 -2.2712 -1.199 -3.0888 c-0.74578 -0.7988 -1.7223 -1.239 -2.7494 -1.239 c-1.092 0 -2.069 0.42854 -2.8258 1.2392 c-0.052344 0.054882 -0.10078 0.1084 -0.1477 0.16344 c-0.12145 0.14211 -0.33554 0.15871 -0.47766 0.03709 s-0.15871 -0.33538 -0.03709 -0.47766 c0.055214 -0.064356 0.1118 -0.12703 0.17006 -0.18783 c0.88536 -0.94854 2.0338 -1.4516 3.3182 -1.4516 c1.217 0 2.3694 0.5166 3.2448 1.4546 c0.87774 0.94176 1.3811 2.236 1.3811 3.5508 c0 1.3242 -0.50442 2.6126 -1.3837 3.5346 c-0.8845 0.94768 -2.037 1.4709 -3.2424 1.4709 c-1.2546 0 -2.434 -0.52322 -3.3208 -1.4733 c-0.8757 -0.89652 -1.381 -2.1862 -1.381 -3.5322 c0 -0.60096 0.099434 -1.1914 0.29524 -1.7541 c0.061308 -0.17666 0.25388 -0.27066 0.43122 -0.2085 z M122.69919999999999 14.394400000000001 c0.32538 0.98088 1.2162 3.622 1.4264 4.0572 c0.081308 0.16854 0.010684 0.37112 -0.15768 0.45242 c-0.16836 0.081464 -0.37112 0.010664 -0.45242 -0.1577 c-0.23458 -0.48578 -1.1128 -3.1002 -1.382 -3.9064 l-2.4702 0 l0 3.7779 c0 0.7622 -0.6284 1.3821 -1.4009 1.3821 c-0.7622 0 -1.3821 -0.61992 -1.3821 -1.3821 l0 -2.655 c0 -0.18699 0.15176 -0.33876 0.33876 -0.33876 s0.33876 0.15176 0.33876 0.33876 l0 2.655 c0 0.38856 0.31606 0.7046 0.7046 0.7046 c0.39888 0 0.72342 -0.31606 0.72342 -0.7046 l0 -4.1166 c0 -0.18699 0.15176 -0.33876 0.33876 -0.33876 l3.0532 0 c0.146 0 0.27556 0.093496 0.32146 0.23204 z M119.32459999999999 10.7976 c0.18699 0 0.33872 0.15154 0.33872 0.33872 l0 0.92041 l1.9946 0 c0.8906 0 1.6152 -0.71614 1.6152 -1.5962 c0 -0.91634 -0.70936 -1.6342 -1.6152 -1.6342 l-1.9946 0 l0 0.71801 c0 0.18699 -0.15176 0.33876 -0.33876 0.33876 s-0.33876 -0.15176 -0.33876 -0.33876 l0 -1.0568 c0 -0.18699 0.15176 -0.33876 0.33876 -0.33876 l2.3334 0 c1.2643 0 2.2928 1.0371 2.2928 2.3116 c0 1.2539 -1.0285 2.2738 -2.2928 2.2738 l-2.3334 0 c-0.18699 0 -0.33876 -0.15176 -0.33876 -0.33876 l0 -1.2592 c0 -0.18699 0.15176 -0.33876 0.33876 -0.33876 z M126.58699999999999 17.9736 c0.12213 0.35452 0.096562 0.73174 -0.07164 1.0649 c-0.16564 0.3279 -0.45038 0.5752 -0.8015 0.69614 c-0.036426 0.012539 -0.073692 0.018633 -0.11027 0.018633 c-0.14059 0 -0.27204 -0.088242 -0.32032 -0.22866 c-0.061152 -0.17684 0.032852 -0.36976 0.20986 -0.43056 c0.18344 -0.06334 0.33164 -0.19156 0.41734 -0.36128 c0.084864 -0.16803 0.09791 -0.35842 0.036758 -0.53594 c-0.10314 -0.29184 -0.98306 -2.349 -2.0146 -4.4778 c-0.067754 -0.14008 -0.031504 -0.30828 0.088086 -0.40788 c0.8757 -0.72968 1.3579 -1.7421 1.3579 -2.851 c0 -2.0622 -1.6692 -3.74 -3.721 -3.74 l-3.3957 0 c-0.40178 0 -0.70462 0.30286 -0.70462 0.70462 l0 7.0382 c0 0.18699 -0.15176 0.33876 -0.33876 0.33876 s-0.33876 -0.15176 -0.33876 -0.33876 l0 -7.0381 c0 -0.77508 0.60704 -1.3821 1.3821 -1.3821 l3.3957 0 c2.4254 0 4.3984 1.9816 4.3984 4.4174 c0 1.2261 -0.4956 2.3512 -1.4018 3.1954 c0.95954 1.9962 1.8063 3.9602 1.9326 4.3178 z" fill="#FFFFFF"></path></g></svg>